General
Complete name                            : Ashite Ashiona.mp4
Format                                   : MPEG-4
Format profile                           : Base Media
Codec ID                                 : isom
File size                                : 599 MiB
Duration                                 : 1h 44mn
Overall bit rate mode                    : Variable
Overall bit rate                         : 799 Kbps
Writing application                      : Lavf52.34.0

Video
ID                                       : 1
Format                                   : AVC
Format/Info                              : Advanced Video Codec
Format profile                           : Baseline@L3.0
Format settings, CABAC                   : No
Format settings, ReFrames                : 1 frame
Codec ID                                 : avc1
Codec ID/Info                            : Advanced Video Coding
Duration                                 : 1h 44mn
Bit rate                                 : 635 Kbps
Width                                    : 320 pixels
Height                                   : 240 pixels
Display aspect ratio                     : 4:3
Frame rate mode                          : Constant
Frame rate                               : 15.000 fps
Color space                              : YUV
Chroma subsampling                       : 4:2:0
Bit depth                                : 8 bits
Scan type                                : Progressive
Bits/(Pixel*Frame)                       : 0.551
Stream size                              : 476 MiB (79%)

Audio
ID                                       : 2
Format                                   : AAC
Format/Info                              : Advanced Audio Codec
Format profile                           : LC
Codec ID                                 : 40
Duration                                 : 1h 44mn
Bit rate mode                            : Variable
Bit rate                                 : 160 Kbps
Channel(s)                               : 2 channels
Channel positions                        : Front: L R
Sampling rate                            : 44.1 KHz
Compression mode                         : Lossy
Stream size                              : 120 MiB (20%)



Screenshots. 
http://www.freeimagehosting.net/lkeoh